<?xml version="1.0" encoding="utf-8"?>
<svg version="1.2" viewBox="-174.378 752.581 2624.856 986.616" width="2400" height="800" xmlns="http://www.w3.org/2000/svg">
  <defs/>
  <title>Logo Javra</title>
  <style>
        .s0 { fill: #636467 } 
        .s1 { fill: #009a66 } 
        .s2 { fill: #baddce } 
    </style>
  <g id="JAVRA vectoren">
    <g id="&lt;Group&gt;">
      <path id="&lt;Path&gt;" class="s1" d="m287.5 1502.4c0 38.3-11.8 67.9-35.2 88.6-23.4 20.7-55 31.1-94.4 31.1-9.4 0-22.1-0.9-37.7-2.5-15.7-1.6-28.9-3.6-39.5-6v-54.6h3.3c8 2.6 17.9 5.5 29.7 8.3 11.8 2.8 23.9 4.3 36.3 4.3 18 0 32.4-2.1 43.1-6.1 10.7-4.1 18.6-10 23.8-17.7 5.2-7.7 8.6-17.2 10.1-28.6 1.5-11.3 2.1-24.5 2.1-39.2v-555.2h-91.9v-46.3h150.3z"/>
      <path id="&lt;Path&gt;" class="s1" d="m1260.4 878.5l-159 437h-77.5l-159.1-437h62.1l137.1 384.2 137-384.2z"/>
      <path id="&lt;Path&gt;" class="s1" d="m1478.1 1092.9l18.3 0.2c18.4 0 34.4-1.6 48.2-4.7q20.5-4.9 34.9-18.1 13.2-12.2 19.6-28.2c4.1-10.6 6.2-24 6.2-40.4 0-12.4-2.1-23.5-6.6-33.1q-6.6-14.4-21.8-24.4c-8.5-5.6-18.4-9.6-30-11.9-11.6-2.1-25.1-3.2-40.9-3.2h-68.3v214.1 172.3h-58.4v-437h122.6c26.4 0 48.5 1.7 66 5.1q26.5 5.3 47.7 18.4c15.8 10 28.2 22.6 37.1 37.7 8.9 15.2 13.4 34.4 13.4 57.7 0 31.5-7.9 57.9-23.8 79.1-15.9 21.2-37.7 37.3-65.5 47.9l164.4 191.1h-75.4l-146.4-173.7c0 0-40.4-48.2-41.3-48.9z"/>
      <path id="&lt;Path&gt;" class="s1" d="m414 1315.5l159-437h77.6l159 437h-62.1l-137-384.1-137 384.1z"/>
      <path id="&lt;Path&gt;" class="s1" d="m1816.6 1315.5l159-437h77.6l159 437h-62.1l-137-384.1-137 384.1z"/>
    </g>
  </g>
  <g id="kleurbalk vectoren">
    <path id="&lt;Path&gt;" class="s2" d="m0 1140.2h2417v50.1h-2417z"/>
  </g>
</svg>